<?xml version="1.0" encoding="UTF-8"?>
<svg version="1.1" xmlns="http://www.w3.org/2000/svg" width="481" height="447">
<path d="M0 0 C158.73 0 317.46 0 481 0 C481 147.51 481 295.02 481 447 C322.27 447 163.54 447 0 447 C0 299.49 0 151.98 0 0 Z " fill="#FBFBFB" transform="translate(0,0)"/>
<path d="M0 0 C0.33 0 0.66 0 1 0 C1 57.09 1 114.18 1 173 C-157.73 173 -316.46 173 -480 173 C-480 116.9 -480 60.8 -480 3 C-475.05 4.98 -475.05 4.98 -470 7 C-467.39505914 7.78122098 -464.81741294 8.51194951 -462.1875 9.1875 C-453.85151197 11.41771844 -445.61146055 13.92884296 -437.375 16.5 C-436.73782043 16.69870697 -436.10064087 16.89741394 -435.44415283 17.10214233 C-429.83894608 18.85108858 -424.23660111 20.60908489 -418.63671875 22.375 C-401.61521501 27.73258806 -384.53264448 33.00269434 -367.3125 37.6875 C-359.88763742 39.70927348 -352.56333075 41.99268101 -345.234375 44.3359375 C-327.21982518 50.08807368 -309.09811422 55.51741319 -291 61 C-290.14212891 61.26022949 -289.28425781 61.52045898 -288.40039062 61.78857422 C-275.63687845 65.6563795 -262.83299055 69.36956332 -250 73 C-250 73.33 -250 73.66 -250 74 C-250.7413834 74.00146656 -251.4827668 74.00293312 -252.24661636 74.00444412 C-270.32664642 74.04157429 -288.40648426 74.100671 -306.48636246 74.18390274 C-315.22984353 74.22362991 -323.97323542 74.2560544 -332.71679688 74.27099609 C-340.34200931 74.28404551 -347.96702501 74.31109362 -355.59212661 74.35461307 C-359.62568708 74.3771543 -363.65900555 74.39291512 -367.69263458 74.39188385 C-371.49801263 74.39113286 -375.30285722 74.40925746 -379.10809708 74.44116783 C-380.4962813 74.44960801 -381.88452578 74.45145727 -383.27272415 74.44580269 C-397.97691352 74.39393799 -409.32457764 77.94425066 -420.1875 88.03125 C-429.76107046 98.03998276 -433.19630032 108.57559064 -433.3125 122.0625 C-433.34150391 123.15755859 -433.37050781 124.25261719 -433.40039062 125.38085938 C-433.47507714 135.02691009 -431.27121783 142.50823952 -425.5 150.3125 C-424.64921875 151.48232422 -424.64921875 151.48232422 -423.78125 152.67578125 C-423.1934375 153.44277344 -422.605625 154.20976562 -422 155 C-421.37480469 155.84691406 -420.74960937 156.69382812 -420.10546875 157.56640625 C-417.86027102 160.16150493 -415.70759892 161.79519722 -412.8125 163.625 C-411.49185547 164.47964844 -411.49185547 164.47964844 -410.14453125 165.3515625 C-401.75448531 169.74982261 -394.30804836 170.43176804 -384.90335083 170.3742218 C-382.95326199 170.38018341 -382.95326199 170.38018341 -380.96377742 170.38626546 C-377.37551722 170.39680301 -373.78750791 170.38875571 -370.1992588 170.37751496 C-366.32201206 170.36864398 -362.44479713 170.37712461 -358.56755066 170.38337708 C-350.98173516 170.39284866 -343.39601501 170.38628053 -335.81020661 170.37411413 C-326.97757994 170.36047654 -318.14497584 170.36213341 -309.31234132 170.36424746 C-293.55781735 170.36743466 -277.80333867 170.35578289 -262.04882812 170.33618164 C-246.75551984 170.31715918 -231.46226458 170.31009948 -216.16894531 170.31567383 C-199.51251488 170.32172706 -182.85610774 170.32156442 -166.19967926 170.310188 C-164.4250799 170.30898069 -162.65048055 170.30777471 -160.8758812 170.30657005 C-160.00273527 170.30596651 -159.12958934 170.30536298 -158.22998444 170.30474115 C-152.06972374 170.30085791 -145.9094717 170.30125711 -139.74921036 170.3031559 C-132.24914088 170.30527447 -124.7491179 170.30007893 -117.24906154 170.28554235 C-113.42085293 170.27828326 -109.59271213 170.27423427 -105.76449776 170.27878571 C-101.6211802 170.28359215 -97.47804939 170.27297688 -93.33474731 170.26069641 C-91.5069178 170.2663654 -91.5069178 170.2663654 -89.64216244 170.27214891 C-88.53750319 170.26631671 -87.43284394 170.26048452 -86.29471016 170.25447559 C-85.33775722 170.25360882 -84.38080427 170.25274204 -83.39485276 170.251849 C-80.73630803 170.15977682 -80.73630803 170.15977682 -78 168 C-76.80665409 164.41996227 -76.66456776 161.75684104 -77 158 C-79.1279575 155.85620374 -80.50690547 155.07347065 -83.50507653 154.62674582 C-84.45503215 154.62755758 -85.40498778 154.62836934 -86.38372993 154.6292057 C-87.48279675 154.62283266 -88.58186356 154.61645961 -89.71423542 154.60989344 C-90.92141158 154.61815162 -92.12858773 154.62640979 -93.37234497 154.63491821 C-94.65502601 154.63179922 -95.93770704 154.62868022 -97.2592572 154.6254667 C-100.82250282 154.61712023 -104.38549166 154.62738256 -107.94871378 154.64055538 C-111.79073122 154.65145172 -115.63272207 154.64499437 -119.4747467 154.64042664 C-126.13451911 154.63467604 -132.79421878 154.6393187 -139.45398331 154.65044022 C-149.09381026 154.66608605 -158.73353912 154.66053464 -168.37336753 154.64882378 C-184.02723271 154.62991986 -199.68108456 154.62071192 -215.33496094 154.62109375 C-216.74069875 154.62111991 -216.74069875 154.62111991 -218.17483531 154.6211466 C-228.62471763 154.62159858 -239.07459516 154.62492152 -249.5244751 154.63201904 C-250.46315921 154.63265143 -251.40184333 154.63328381 -252.36897241 154.63393535 C-253.30666318 154.63456792 -254.24435395 154.63520048 -255.21045959 154.63585222 C-257.10124389 154.63712197 -258.99202819 154.63838738 -260.8828125 154.63964844 C-261.81701118 154.64027663 -262.75120986 154.64090482 -263.71371759 154.64155205 C-279.30131564 154.65151243 -294.88883426 154.64216508 -310.47641551 154.61746442 C-320.08881335 154.60303942 -329.70093148 154.6050896 -339.31331317 154.62842642 C-345.90443991 154.64319265 -352.495403 154.64000214 -359.08652325 154.6227975 C-362.88735328 154.61347417 -366.68772872 154.61226847 -370.48852348 154.63302803 C-374.61460887 154.65538776 -378.73965556 154.63897308 -382.86575317 154.61904907 C-384.05954499 154.63176869 -385.25333681 154.64448831 -386.48330414 154.65759337 C-394.9321303 154.56975951 -401.76885162 152.90085625 -408.11031544 147.05442011 C-416.14539203 138.55383793 -418.41211228 129.84487179 -418.26953125 118.34765625 C-417.60203239 110.05712697 -413.90910595 104.30033509 -408.5859375 98.10546875 C-400.52097303 91.53897955 -393.05299291 90.27330594 -382.85902405 90.38768005 C-381.5662775 90.38214664 -380.27353096 90.37661323 -378.94161028 90.37091213 C-375.3782401 90.35625504 -371.81559039 90.37238818 -368.25227916 90.39376509 C-364.40026376 90.41133122 -360.54832075 90.39981584 -356.69628906 90.39175415 C-350.03000735 90.38157176 -343.36393825 90.38911477 -336.69767952 90.40841484 C-327.0562607 90.43595257 -317.41504685 90.43205908 -307.77360564 90.41982902 C-292.12500917 90.40045676 -276.47648044 90.40036385 -260.82788086 90.4152832 C-259.89227915 90.41616934 -258.95667745 90.41705547 -257.99272417 90.41796846 C-254.20118397 90.4216029 -250.40964386 90.42532031 -246.61810384 90.42913502 C-236.16524442 90.43961089 -225.71238412 90.4478476 -215.25952148 90.4543457 C-214.32294132 90.45493394 -213.38636116 90.45552217 -212.42139978 90.45612823 C-196.82123165 90.46539816 -181.22110399 90.45895177 -165.62094301 90.44203526 C-155.99893175 90.43243337 -146.37713749 90.43763531 -136.75515061 90.46180297 C-130.17070285 90.4775168 -123.58634786 90.47940167 -117.00188792 90.47026973 C-113.19990868 90.46552842 -109.39822788 90.46753252 -105.59628868 90.48690605 C-101.48135115 90.50776743 -97.36706065 90.49809194 -93.25209045 90.4853363 C-92.04200146 90.49650732 -90.83191247 90.50767834 -89.58515412 90.51918787 C-88.48807835 90.51082377 -87.39100259 90.50245968 -86.26068211 90.49384212 C-85.31034676 90.49503361 -84.36001142 90.49622509 -83.38087803 90.49745268 C-80.28429358 89.8504627 -79.69248162 88.57113533 -78 86 C-77.34 86 -76.68 86 -76 86 C-76.33 83.03 -76.66 80.06 -77 77 C-80.89358159 75.185856 -83.97699005 74.74316601 -88.25788879 74.7215271 C-89.51847107 74.71036362 -90.77905334 74.69920013 -92.07783508 74.68769836 C-93.4670102 74.68533364 -94.85618565 74.68315795 -96.24536133 74.68115234 C-97.71406606 74.67185019 -99.18276552 74.66168108 -100.65145874 74.65071106 C-104.63242948 74.62342933 -108.61336486 74.60826709 -112.59440446 74.59528303 C-116.75712526 74.5796445 -120.91977396 74.55285657 -125.08244324 74.5272522 C-132.96230231 74.48047722 -140.84217497 74.44372691 -148.72210187 74.41057932 C-157.69428031 74.3723489 -166.66638631 74.32294114 -175.63850367 74.27259517 C-194.09228275 74.16929436 -212.54610606 74.08002793 -231 74 C-227.4948722 71.66324813 -223.90401953 70.4859908 -219.9375 69.1875 C-219.13094971 68.92106689 -218.32439941 68.65463379 -217.4934082 68.38012695 C-211.55194302 66.44396203 -205.57056962 64.73368823 -199.53808594 63.10839844 C-188.41356884 60.07443923 -177.43760827 56.51799371 -166.43505859 53.07373047 C-158.3360056 50.54212883 -150.22669274 48.05695304 -142.08203125 45.67578125 C-135.46119937 43.73919711 -128.8579569 41.74919713 -122.26171875 39.73046875 C-121.33033585 39.44544998 -120.39895294 39.16043121 -119.43934631 38.86677551 C-117.51258658 38.27694483 -115.58585462 37.68702338 -113.65914917 37.09701538 C-98.69754692 32.51780479 -83.729867 27.99942877 -68.66552734 23.76855469 C-59.28494088 21.12008585 -49.98625096 18.23205098 -40.69311523 15.29272461 C-34.75352846 13.42655287 -28.81074631 11.64890749 -22.79296875 10.05078125 C-21.64852295 9.745354 -20.50407715 9.43992676 -19.32495117 9.12524414 C-17.17152195 8.5583858 -15.01425371 8.00583834 -12.8527832 7.47045898 C-7.10746625 5.95822959 -3.78199302 4.63294145 0 0 Z " fill="#F8F8F7" transform="translate(480,274)"/>
<path d="M0 0 C1.94094149 0.72682064 3.88123248 1.45551477 5.81567383 2.19946289 C8.55495211 3.20338527 11.32793305 3.99559967 14.13500977 4.78540039 C72.4026129 21.2876555 130.73012004 50.49719293 162.51123047 104.57128906 C163.69771889 106.70272035 164.86378796 108.84142098 166 111 C168.75090252 109.62454874 168.94943837 107.72824528 170.0625 104.99707031 C171.72667057 101.4520403 174.11600967 98.46327333 176.5 95.375 C177.03407471 94.67624756 177.56814941 93.97749512 178.1184082 93.25756836 C179.73264101 91.16119002 181.36186837 89.07774179 183 87 C183.44907715 86.42942871 183.8981543 85.85885742 184.36083984 85.27099609 C195.81686953 70.8775229 208.92994863 57.58227872 224 47 C225.051875 46.23042969 226.10375 45.46085937 227.1875 44.66796875 C235.2624235 38.91003432 243.89941664 34.25255871 252.6875 29.6875 C253.81559082 29.1006543 254.94368164 28.51380859 256.10595703 27.90917969 C263.27279997 24.24359126 270.52579404 20.98500474 278 18 C279.01626465 17.5877417 280.0325293 17.1754834 281.07958984 16.75073242 C291.50670585 12.5516554 302.25601124 9.27940413 313 6 C313.86012695 5.73590332 314.72025391 5.47180664 315.60644531 5.19970703 C318.00401094 4.47105352 320.40645665 3.76258876 322.8125 3.0625 C323.51012451 2.85109375 324.20774902 2.6396875 324.92651367 2.421875 C329.8852112 1.01958372 334.85377977 0.30174353 340 1 C343 3 343 3 343.875 6.8125 C344.29136127 9.57222792 344.04704278 10.89101202 342.92797852 13.48364258 C340.41634866 16.76176958 337.81425627 17.44325681 333.97265625 18.4296875 C332.92844009 18.72323875 332.92844009 18.72323875 331.86312866 19.02272034 C330.37347418 19.4397562 328.8814596 19.84843631 327.38742065 20.2494812 C323.47853705 21.30116448 319.58878816 22.42025779 315.6953125 23.52734375 C314.93014816 23.74292435 314.16498383 23.95850494 313.37663269 24.18061829 C277.08712132 34.42417116 242.41916147 50.80415497 215 77 C212.69338778 79.03501453 210.35434701 81.0202082 208 83 C211.19546665 81.56060061 213.58972028 79.76960927 216.25 77.5 C230.7495252 65.7470809 247.69380471 56.60375075 265.23828125 50.3671875 C268.5196183 49.19840178 271.69066512 47.8517839 274.875 46.4375 C281.98296634 43.42434036 289.37801667 41.55998032 296.82519531 39.59082031 C299.98705881 38.73184976 303.1148186 37.76362245 306.25 36.8125 C312.19642866 35.08970291 318.09287518 34.13123583 324.234375 33.39453125 C326.95249389 33.15559279 326.95249389 33.15559279 329 32 C332.66789413 31.3502774 336.3688185 30.91609853 340.0625 30.4375 C341.07505859 30.29892578 342.08761719 30.16035156 343.13085938 30.01757812 C359.00271673 27.94021704 359.00271673 27.94021704 364.0625 30.625 C366 33 366 33 366.5625 35.9375 C365.84939022 39.81998658 364.94037848 41.35365937 362 44 C356.9945838 45.49941983 352.08118828 46.32188415 346.90112305 46.93554688 C305.29798384 51.87014889 263.40979301 64.5434529 229 89 C227.94039063 89.74765625 226.88078125 90.4953125 225.7890625 91.265625 C206.17736801 104.60906821 206.17736801 104.60906821 191 122 C190.34 122 189.68 122 189 122 C189 122.66 189 123.32 189 124 C189.80179687 123.69707031 190.60359375 123.39414062 191.4296875 123.08203125 C198.79754198 120.36711888 206.17287104 118.05671999 213.75463867 116.01904297 C219.95859476 114.33350365 226.07180852 112.41764925 232.1875 110.4375 C239.43010361 108.09569174 246.6584036 105.98589642 254.03125 104.09375 C260.05542917 102.48730222 265.96305835 100.482246 271.89331055 98.56420898 C277.00732892 96.92055882 282.10741843 95.38882316 287.3125 94.0625 C295.24490211 92.02877648 302.99160504 89.46440566 310.77783203 86.93530273 C317.81003109 84.66414308 324.84588008 82.59104778 332.01171875 80.7890625 C335.0610548 79.98387834 338.00875767 78.99846465 341 78 C342.88010489 77.42467006 344.76303624 76.8585097 346.6484375 76.30078125 C347.72544922 75.98181885 348.80246094 75.66285645 349.91210938 75.33422852 C351.62624023 74.8284729 351.62624023 74.8284729 353.375 74.3125 C354.55642578 73.9630835 355.73785156 73.61366699 356.95507812 73.25366211 C366.15389805 70.5363307 375.35999291 67.84418542 384.57177734 65.17114258 C385.50715332 64.89939209 386.4425293 64.6276416 387.40625 64.34765625 C388.22416016 64.11054932 389.04207031 63.87344238 389.88476562 63.62915039 C391.59996975 63.11898407 393.30236183 62.56587939 395 62 C398.6825269 61.72722023 401.43195448 61.8066228 404.9375 63 C407.49908626 65.48396243 407.5953597 67.36334485 407.6640625 70.8671875 C406.62391189 74.20790651 404.86302231 76.12588107 402 78 C398.22973923 79.48236357 394.36328615 80.45413629 390.4375 81.4375 C388.17797577 82.03621657 385.91886558 82.63649771 383.66015625 83.23828125 C382.53625488 83.53299316 381.41235352 83.82770508 380.25439453 84.13134766 C375.60046571 85.37355911 370.98553251 86.73143375 366.375 88.125 C365.55402832 88.37185547 364.73305664 88.61871094 363.88720703 88.87304688 C359.16296626 90.3060825 354.48273876 91.83552983 349.8125 93.4375 C343.75869064 95.4831378 337.66094344 97.2442283 331.5 98.9375 C318.52891017 102.50525222 305.64052891 106.34063961 292.75 110.1875 C291.72430908 110.49332001 290.69861816 110.79914001 289.6418457 111.11422729 C279.86014461 114.03186656 270.08302834 116.96094209 260.33154297 119.97827148 C256.07416947 121.28393674 251.80903875 122.56292396 247.54296875 123.83984375 C246.70285248 124.09132675 245.86273621 124.34280975 244.99716187 124.60191345 C241.52591679 125.64054125 238.05447853 126.67851972 234.58276367 127.71557617 C225.18528355 130.52358111 215.79774968 133.35556869 206.44117737 136.29728699 C200.14862351 138.27414477 193.82982311 140.15677351 187.50390625 142.0234375 C186.68019531 142.26835937 185.85648437 142.51328125 185.0078125 142.765625 C184.28223145 142.97993164 183.55665039 143.19423828 182.80908203 143.41503906 C180.92882828 143.9729444 180.92882828 143.9729444 179 145 C180.12175393 145.00358253 180.12175393 145.00358253 181.26616955 145.00723743 C199.46055583 145.06636694 217.65480622 145.14190385 235.84904766 145.23571491 C244.64764394 145.28068533 253.44619964 145.32009711 262.24487305 145.34643555 C269.91357408 145.36940555 277.58214679 145.40279236 285.25074607 145.44870156 C289.31143177 145.47264731 293.37199028 145.49136719 297.43274498 145.49761391 C301.25526225 145.5036587 305.07745403 145.52363631 308.89985085 145.55427551 C310.30226507 145.5630655 311.70472182 145.56677632 313.10716248 145.56500816 C315.02348 145.56335503 316.93978327 145.58182381 318.85600281 145.60127258 C320.46407067 145.60818603 320.46407067 145.60818603 322.10462475 145.61523914 C325.42224612 146.05611148 327.31716226 147.0294912 330 149 C331.4783226 151.95664519 331.06032783 154.74229737 331 158 C330.34 158 329.68 158 329 158 C328.690625 158.639375 328.38125 159.27875 328.0625 159.9375 C327 162 327 162 326 163 C324.33081309 163.09773122 322.6574591 163.12479062 320.98541355 163.12469864 C319.89231988 163.12708959 318.79922622 163.12948054 317.6730085 163.13194394 C315.84913649 163.1282952 315.84913649 163.1282952 313.98841858 163.12457275 C312.06824194 163.12668798 312.06824194 163.12668798 310.10927385 163.12884593 C307.28688231 163.13191577 304.46451433 163.13178932 301.64212227 163.12928963 C297.0504608 163.12524338 292.4588179 163.12799227 287.86715698 163.13163757 C282.06499787 163.13573415 276.26284289 163.13796734 270.46068233 163.13805357 C259.05266244 163.13825605 247.64468521 163.15070225 236.23667908 163.16766357 C234.44188709 163.17026947 232.64709509 163.17286828 230.85230309 163.1754601 C228.1317663 163.17939876 225.41122953 163.18334525 222.6906928 163.18732132 C212.42424936 163.20227921 202.1578046 163.21589678 191.89135742 163.22802734 C190.95250237 163.2291409 190.01364733 163.23025447 189.04634213 163.23140177 C173.84711833 163.24896004 158.64792117 163.25184715 143.44868893 163.25017694 C127.84761208 163.2488972 112.24663428 163.26665367 96.64559549 163.30119491 C87.02190452 163.32183678 77.39845084 163.3271884 67.7747473 163.3128666 C61.17376264 163.30439715 54.57296214 163.31416617 47.97201634 163.3381761 C44.16514627 163.35146392 40.35871806 163.35670587 36.55185127 163.34005547 C32.41900784 163.32217985 28.28724387 163.34306254 24.1544342 163.36749268 C22.95859603 163.3561373 21.76275785 163.34478192 20.53068215 163.33308244 C12.06168028 163.43033534 5.32480533 165.14529543 -1.11048073 170.88107419 C-7.40078793 177.32077335 -10.18548946 184.56412616 -10.4375 193.5 C-10.04969333 203.82535264 -7.38600578 211.58474271 0 219 C5.19675618 222.99530429 9.65348332 225.12408946 16.27464867 225.12749195 C17.37480792 225.1304996 18.47496718 225.13350725 19.6084646 225.13660604 C20.82196419 225.13485567 22.03546378 225.13310529 23.28573608 225.13130188 C25.21376774 225.13447545 25.21376774 225.13447545 27.18074954 225.13771313 C30.00836579 225.14231521 32.83596015 225.14373001 35.66357994 225.14274788 C40.26388283 225.141157 44.86416394 225.14635311 49.46446228 225.15237427 C56.14333464 225.16049189 62.82220318 225.16543266 69.50107956 225.16866493 C80.05466066 225.17415765 90.60820936 225.19105085 101.16177368 225.21000671 C104.7709331 225.21636361 108.3800926 225.22267201 111.98925209 225.22898388 C112.89124694 225.23056764 113.79324179 225.2321514 114.72256982 225.23378316 C124.99310411 225.25172451 135.2636407 225.26794896 145.53417969 225.28295898 C146.47321528 225.28433486 147.41225088 225.28571073 148.3797421 225.28712829 C163.60160852 225.30906469 178.82346663 225.31981599 194.04534607 225.32732973 C209.665664 225.33539571 225.2859105 225.35866886 240.90618765 225.3952834 C250.54534672 225.41733038 260.184359 225.42696636 269.82354201 225.42078307 C276.42725511 225.41761279 283.03084268 225.42890993 289.63451694 225.45167748 C293.44679838 225.46436742 297.25880024 225.47048864 301.07109261 225.45926094 C305.20107857 225.44725364 309.33035096 225.46596499 313.46029663 225.48774719 C315.27385385 225.47508339 315.27385385 225.47508339 317.12404859 225.46216375 C325.17860772 225.54108544 325.17860772 225.54108544 329.25248146 227.81717205 C331 230 331 230 331.5 233.4375 C330.98463241 237.10949407 330.23533342 239.07687168 328 242 C325.45621243 243.27189379 323.683038 243.12889209 320.83392429 243.13422108 C319.73248949 243.13867892 318.63105468 243.14313676 317.49624306 243.14772969 C316.27614145 243.14754533 315.05603984 243.14736097 313.79896545 243.14717102 C311.86631487 243.15268605 311.86631487 243.15268605 309.89462084 243.1583125 C306.30607584 243.16834952 302.71754758 243.17205205 299.12899053 243.17470181 C295.26305959 243.17860003 291.39714195 243.18817894 287.53121948 243.19691467 C278.18672166 243.21669656 268.84222272 243.22674916 259.49770918 243.23564246 C255.09742977 243.24002404 250.69715156 243.24539132 246.29687309 243.25063133 C231.66814073 243.26764814 217.03940912 243.28214098 202.41066837 243.28938007 C198.61256471 243.29128999 194.81446106 243.29321032 191.01635742 243.29516602 C190.07234896 243.29564976 189.12834049 243.2961335 188.15572571 243.2966319 C172.87314473 243.30492707 157.59064216 243.33025328 142.3080954 243.36274669 C126.61775521 243.39583497 110.92745482 243.41383058 95.23707956 243.41702431 C86.42767285 243.41918817 77.61838034 243.42791823 68.80900764 243.45348549 C61.3038554 243.47521695 53.79884508 243.48323104 46.29366494 243.47351871 C42.46644873 243.46898056 38.6395252 243.47083143 34.81234932 243.49028015 C30.65599055 243.51121842 26.50027793 243.50090516 22.34388733 243.48774719 C20.54384966 243.50420106 20.54384966 243.50420106 18.70744759 243.52098733 C6.1913433 243.42551314 -3.70795072 239.41783524 -13 231 C-25.63764123 216.59696426 -27.88684771 203.5092606 -27.22216797 184.93408203 C-26.79039183 179.23179007 -25.14591873 174.81046813 -22 170 C-21.22076172 168.80117188 -21.22076172 168.80117188 -20.42578125 167.578125 C-12.78446932 156.96222311 -2.09711303 148.42842611 11 146 C15.63946465 145.68778385 20.27291518 145.68880644 24.92163086 145.68115234 C26.33151824 145.67184394 27.74140015 145.66167392 29.15127563 145.65071106 C32.96271148 145.62349972 36.77411054 145.60828808 40.58561778 145.59528303 C44.57482652 145.57961353 48.56396059 145.55283555 52.55311584 145.5272522 C60.09999718 145.48053187 67.64689267 145.44375518 75.19384438 145.41057932 C83.78881081 145.37231018 92.38370212 145.32291261 100.97860515 145.27259517 C118.65234839 145.16937569 136.32613754 145.08008292 154 145 C152.76828568 144.66004501 151.53657135 144.32009003 150.26753235 143.96983337 C148.63317584 143.5176151 146.9988331 143.06534705 145.36450195 142.61303711 C144.55485237 142.38971458 143.74520279 142.16639206 142.91101837 141.93630219 C136.9540323 140.28614738 131.05966147 138.49346986 125.1875 136.5625 C118.13803328 134.28209918 111.07196107 132.12336898 103.9375 130.125 C88.79243935 125.87357653 73.77990844 121.14876239 58.8046875 116.3359375 C49.17771433 113.2446983 39.49989568 110.43743285 29.75341797 107.74560547 C18.81871954 104.70791273 7.98957566 101.35114755 -2.84521484 97.97753906 C-7.8691475 96.42082754 -12.90356406 94.89898515 -17.9375 93.375 C-25.6147638 91.04841776 -33.26802414 88.65684617 -40.90625 86.20532227 C-45.1529349 84.85562524 -49.41295867 83.58951515 -53.70703125 82.3984375 C-54.66206543 82.13297119 -55.61709961 81.86750488 -56.60107422 81.59399414 C-58.4481473 81.08508719 -60.2973617 80.58386939 -62.14892578 80.09155273 C-70.65202558 77.75324124 -70.65202558 77.75324124 -73 75 C-73.4609375 72.37109375 -73.4609375 72.37109375 -73.375 69.4375 C-73.36210938 68.46683594 -73.34921875 67.49617188 -73.3359375 66.49609375 C-73 64 -73 64 -71 62 C-64.89768805 61.53194301 -59.94601661 62.57970177 -54.14746094 64.38330078 C-53.30059723 64.63700943 -52.45373352 64.89071808 -51.58120728 65.15211487 C-48.79566768 65.98944128 -46.01513678 66.84226643 -43.234375 67.6953125 C-41.27619179 68.287254 -39.31771039 68.87820987 -37.35894775 69.4682312 C-32.20160388 71.02458055 -27.04835412 72.59407806 -21.89587402 74.16644287 C-16.71939208 75.74373225 -11.53926831 77.3089577 -6.359375 78.875 C1.29404131 81.19007814 8.94531736 83.51205074 16.59472656 85.84033203 C25.17577339 88.4514732 33.76488975 91.03500996 42.35726929 93.60858154 C48.95348379 95.58437435 55.54507655 97.57541679 62.13671875 99.56640625 C63.47987419 99.9718693 64.82303954 100.37729952 66.16621399 100.78269958 C71.74416267 102.46626187 77.32205194 104.15002037 82.8996582 105.8347168 C87.02015475 107.07924423 91.14085629 108.32309098 95.26171875 109.56640625 C95.92130899 109.76544933 96.58089924 109.96449242 97.26047707 110.16956711 C104.80892165 112.44669254 112.36151668 114.70727189 119.9296875 116.91796875 C125.13210256 118.43769576 130.30156015 120.01739379 135.4375 121.75 C136.65308594 122.15734375 137.86867187 122.5646875 139.12109375 122.984375 C142 124 142 124 144 125 C135.62851583 114.71250713 125.51522738 106.02596982 115 98 C114.48163574 97.59845703 113.96327148 97.19691406 113.42919922 96.78320312 C75.15037101 67.24398554 29.47890335 52.4310203 -18.08935547 46.4765625 C-19.34377441 46.31671875 -20.59819336 46.156875 -21.890625 45.9921875 C-23.54239746 45.80052002 -23.54239746 45.80052002 -25.22753906 45.60498047 C-28.13050135 44.97152322 -29.37483407 44.40493241 -31.375 42.25 C-33.15342949 38.69314103 -33.7633049 36.90133618 -33 33 C-31.6875 30.625 -31.6875 30.625 -29 29 C-19.83370062 27.90818713 -10.50156519 29.96626463 -1.5 31.5625 C-0.73266541 31.69693512 0.03466919 31.83137024 0.82525635 31.96987915 C44.46427444 39.667993 85.99618631 54.74924096 122 81 C121.53980469 80.55897949 121.07960937 80.11795898 120.60546875 79.66357422 C117.3125 76.5078125 117.3125 76.5078125 116 75 C116 74.34 116 73.68 116 73 C115.1646875 72.88398438 115.1646875 72.88398438 114.3125 72.765625 C111.1848478 71.73011853 109.44773851 69.95581087 107 67.75 C84.99532772 48.82951256 58.12076889 37.49405371 31 28 C29.88262451 27.60409668 29.88262451 27.60409668 28.74267578 27.20019531 C20.71640208 24.36874146 12.62301571 22.05372529 4.3984375 19.8984375 C-6.87924528 16.91698113 -6.87924528 16.91698113 -10.0625 14.3125 C-11.47446253 10.82965909 -11.80131067 7.68905289 -11 4 C-7.67072686 0.08320807 -5.02009061 -0.68903204 0 0 Z " fill="#060606" transform="translate(73,202)"/>
<path d="M0 0 C4.95 1.98 4.95 1.98 10 4 C12.60494086 4.78122098 15.18258706 5.51194951 17.8125 6.1875 C26.14848803 8.41771844 34.38853945 10.92884296 42.625 13.5 C43.26217957 13.69870697 43.89935913 13.89741394 44.55584717 14.10214233 C50.16105392 15.85108858 55.76339889 17.60908489 61.36328125 19.375 C78.38478499 24.73258806 95.46735552 30.00269434 112.6875 34.6875 C120.11236258 36.70927348 127.43666925 38.99268101 134.765625 41.3359375 C152.78017482 47.08807368 170.90188578 52.51741319 189 58 C189.85787109 58.26022949 190.71574219 58.52045898 191.59960938 58.78857422 C204.36312155 62.6563795 217.16700945 66.36956332 230 70 C230 70.33 230 70.66 230 71 C229.2586166 71.00146656 228.5172332 71.00293312 227.75338364 71.00444412 C209.67335358 71.04157429 191.59351574 71.100671 173.51363754 71.18390274 C164.77015647 71.22362991 156.02676458 71.2560544 147.28320312 71.27099609 C139.65799069 71.28404551 132.03297499 71.31109362 124.40787339 71.35461307 C120.37431292 71.3771543 116.34099445 71.39291512 112.30736542 71.39188385 C108.50198737 71.39113286 104.69714278 71.40925746 100.89190292 71.44116783 C99.5037187 71.44960801 98.11547422 71.45145727 96.72727585 71.44580269 C82.02308648 71.39393799 70.67542236 74.94425066 59.8125 85.03125 C50.23892954 95.03998276 46.80369968 105.57559064 46.6875 119.0625 C46.65849609 120.15755859 46.62949219 121.25261719 46.59960938 122.38085938 C46.52492286 132.02691009 48.72878217 139.50823952 54.5 147.3125 C55.35078125 148.48232422 55.35078125 148.48232422 56.21875 149.67578125 C56.8065625 150.44277344 57.394375 151.20976562 58 152 C58.62777344 152.84820312 59.25554688 153.69640625 59.90234375 154.5703125 C62.11436339 157.1324656 64.21053849 158.75219748 67.0625 160.5625 C67.91972656 161.12066406 68.77695313 161.67882812 69.66015625 162.25390625 C78.43039109 166.83904657 86.16786949 168.59082105 96.02861023 168.51898193 C97.18957067 168.52648319 98.35053111 168.53398444 99.54667217 168.541713 C102.73725522 168.5583857 105.92724893 168.55746456 109.11784494 168.54880548 C112.57035807 168.54383109 116.02276265 168.56198195 119.47523499 168.57722473 C125.44627627 168.60046857 131.41719635 168.60928832 137.38828087 168.60811615 C146.02127624 168.60644258 154.65411065 168.62682552 163.28706298 168.65247145 C177.29577828 168.6934936 191.30446451 168.71685039 205.31323242 168.72900391 C218.91579989 168.74084306 232.51831267 168.76106035 246.12084961 168.79248047 C246.9602924 168.79441657 247.7997352 168.79635267 248.66461565 168.79834744 C252.8761471 168.80811245 257.08767813 168.81804148 261.299209 168.82805204 C296.19944786 168.91079595 331.09968199 168.96483099 366 169 C366 169.33 366 169.66 366 170 C245.22 170 124.44 170 0 170 C0 113.9 0 57.8 0 0 Z " fill="#FCFCFC" transform="translate(0,277)"/>
<path d="M0 0 C9.47807118 7.88721191 16.26518965 17.325147 17.94799805 29.80883789 C18.83364369 51.80237127 5.9847397 70.60457067 -7.2277832 86.93383789 C-10.41000846 90.87781005 -13.19651368 94.97352269 -15.80981445 99.31665039 C-16.34606445 100.19192383 -16.88231445 101.06719727 -17.43481445 101.96899414 C-17.93879509 103.04604362 -17.93879509 103.04604362 -18.45295715 104.14485168 C-20.46337033 107.91654571 -21.97535879 110.47772181 -26.14071655 111.87983704 C-29.55937856 112.29628166 -32.87737835 112.42586744 -36.3215332 112.44555664 C-37.57432571 112.47314056 -38.82711823 112.50072449 -40.11787415 112.52914429 C-42.76932817 112.57032019 -45.41256966 112.59123576 -48.06347656 112.58178711 C-50.76543334 112.57658463 -53.45476229 112.63183668 -56.15429688 112.74584961 C-77.82716991 113.59732654 -77.82716991 113.59732654 -83.70214844 109.31713867 C-87.31236567 105.36791382 -89.49987361 100.96214892 -91.50276184 96.04116821 C-92.92677474 92.87524972 -94.8954475 90.42625287 -97.05981445 87.71899414 C-105.90200747 76.17194423 -114.89602572 64.40653789 -119.57543945 50.51196289 C-120.37872612 47.97368385 -120.37872612 47.97368385 -121.5168457 45.67993164 C-124.29648744 37.47111731 -123.51349625 26.46707622 -120.49731445 18.46899414 C-113.17597834 3.70429964 -98.37969524 -6.52979613 -83.10668945 -11.84741211 C-81.8949707 -12.23799805 -80.68325195 -12.62858398 -79.43481445 -13.03100586 C-78.4087207 -13.3700293 -77.38262695 -13.70905273 -76.32543945 -14.05834961 C-50.70996046 -20.97198013 -20.96613856 -16.51568266 0 0 Z " fill="#F29707" transform="translate(291.434814453125,115.031005859375)"/>
<path d="M0 0 C0.82072998 0.3079248 1.64145996 0.61584961 2.48706055 0.93310547 C4.97262054 1.86666039 7.45518912 2.80784563 9.9375 3.75 C12.70747532 4.79395438 15.47865769 5.83468073 18.25 6.875 C18.90009033 7.11943848 19.55018066 7.36387695 20.2199707 7.61572266 C28.77740336 10.82677893 37.3685785 13.92729821 46.0625 16.75 C49.85804838 18.00137799 53.52767748 19.38712996 57.1953125 20.97265625 C65.24626405 24.357504 73.46436699 27.25421694 81.6875 30.1875 C84.76620539 31.28874916 87.84421743 32.39191989 90.921875 33.49609375 C92.05235512 33.90112122 92.05235512 33.90112122 93.20567322 34.31433105 C98.31786112 36.15144669 103.40723187 38.04346065 108.48828125 39.96484375 C114.07563302 42.07606243 119.68569165 44.0567125 125.375 45.875 C131.41190864 47.84234488 137.20679353 49.99077096 142.9375 52.75 C140.07882444 55.60867556 136.59576564 56.25112834 132.8125 57.375 C131.68134766 57.71917969 131.68134766 57.71917969 130.52734375 58.0703125 C128.66576841 58.63585438 126.80184849 59.19366822 124.9375 59.75 C124.83615964 67.36707204 124.76605939 74.98397053 124.71777344 82.6015625 C124.69764625 85.19342546 124.67034184 87.78524296 124.63574219 90.37695312 C124.58727499 94.10037449 124.56454184 97.82319599 124.546875 101.546875 C124.52622986 102.70741394 124.50558472 103.86795288 124.48431396 105.06365967 C124.48386078 106.68488739 124.48386078 106.68488739 124.48339844 108.33886719 C124.47451599 109.28928894 124.46563354 110.23971069 124.45648193 111.21893311 C125.077365 114.48595506 126.52057207 115.54770893 128.9375 117.75 C130.78707485 122.65629826 131.17609154 126.99971916 131.1328125 132.21484375 C131.12856766 133.23210289 131.12856766 133.23210289 131.12423706 134.26991272 C131.11315416 136.40929766 131.0880736 138.5482443 131.0625 140.6875 C131.05245476 142.14908244 131.04333163 143.61067153 131.03515625 145.07226562 C131.01496598 148.63180996 130.97579791 152.19042171 130.9375 155.75 C121.0375 155.75 111.1375 155.75 100.9375 155.75 C100.84518394 151.19574119 100.76570495 146.6447844 100.71777344 142.09033203 C100.69777497 140.54432113 100.67056669 138.99838473 100.63574219 137.45263672 C100.27483994 121.01035477 100.27483994 121.01035477 104.9375 114.75 C106.2575 114.42 107.5775 114.09 108.9375 113.75 C108.9375 97.91 108.9375 82.07 108.9375 65.75 C100.60119012 68.74346567 100.60119012 68.74346567 92.2746582 71.76391602 C91.23140381 72.13186279 90.18814941 72.49980957 89.11328125 72.87890625 C88.05020752 73.26119385 86.98713379 73.64348145 85.8918457 74.03735352 C82.73979966 74.79768922 80.99669722 74.75291755 77.9375 73.75 C75.75390625 71.81640625 75.75390625 71.81640625 73.5 69.3125 C50.9806116 45.95906018 17.37762006 35.96272968 -14.32324219 35.30126953 C-29.46857506 35.08016073 -43.53269333 36.09328818 -58.0625 40.75 C-58.7848584 40.97461914 -59.5072168 41.19923828 -60.25146484 41.43066406 C-80.56023676 47.90647112 -99.67873007 58.91637633 -113.0625 75.75 C-119.47948533 74.11162077 -125.71393157 72.23449765 -131.91796875 69.91796875 C-135.76500771 68.48906857 -139.630209 67.11585877 -143.5 65.75 C-144.22960937 65.49202637 -144.95921875 65.23405273 -145.7109375 64.96826172 C-150.02110299 63.45025844 -154.34454852 61.98472125 -158.6875 60.5625 C-162.93400557 59.16440185 -166.9729297 57.54941093 -171.0625 55.75 C-173.05513591 55.06163487 -175.05291337 54.38718601 -177.0625 53.75 C-176.0625 51.75 -176.0625 51.75 -174.0234375 51.00390625 C-173.17007813 50.77574219 -172.31671875 50.54757813 -171.4375 50.3125 C-167.11651728 49.1491585 -163.1644432 47.53768614 -159.0625 45.75 C-156.62988421 44.79461624 -154.1969173 43.85427793 -151.75 42.9375 C-151.07138916 42.68250732 -150.39277832 42.42751465 -149.69360352 42.16479492 C-143.60226964 39.90158694 -137.45082077 37.83596928 -131.26635742 35.8425293 C-126.74542359 34.37156653 -122.4333435 32.63105936 -118.0625 30.75 C-115.6748654 29.93393966 -113.27861565 29.14271432 -110.875 28.375 C-106.37805044 26.90916476 -101.9754244 25.36630632 -97.625 23.5 C-84.24367924 17.77294016 -70.51578122 12.58672513 -56.5390625 8.51171875 C-54.39786203 7.85314763 -52.41470223 7.10490032 -50.375 6.1875 C-47.67681456 5.01658934 -45.18926706 4.1720788 -42.375 3.375 C-38.40880176 2.23229959 -34.67200394 0.80597293 -30.875 -0.8125 C-18.71520341 -5.93078173 -12.0178552 -4.59346892 0 0 Z " fill="#050505" transform="translate(256.0625,5.25)"/>
<path d="M0 0 C0.92039062 0.50402344 1.84078125 1.00804688 2.7890625 1.52734375 C15.04341762 8.50603239 25.4620682 17.08153564 31.87109375 29.77734375 C32.81294378 31.91635655 32.81294378 31.91635655 34 33 C34.08858646 35.73894085 34.11523479 38.4525327 34.09765625 41.19140625 C34.09553383 42.42116432 34.09553383 42.42116432 34.09336853 43.67576599 C34.08775289 46.30471382 34.07519779 48.93357773 34.0625 51.5625 C34.05748701 53.34049357 34.05292376 55.11848846 34.04882812 56.89648438 C34.03777839 61.26435545 34.02050331 65.63216348 34 70 C31.76746243 67.81068529 29.91013984 65.58713765 28.0625 63.0625 C17.03140839 48.86314937 4.60216069 39.96787653 -12 33 C-12.72703125 32.65324219 -13.4540625 32.30648437 -14.203125 31.94921875 C-41.19969915 19.72524549 -78.32622387 21.95394852 -105.5625 31.875 C-124.49971003 39.30399874 -142.18556017 51.79908733 -152 70 C-152.66 70 -153.32 70 -154 70 C-154.12473502 65.19866132 -154.21486503 60.39829045 -154.2746582 55.59570312 C-154.29961442 53.96630397 -154.33359254 52.33701458 -154.37719727 50.70800781 C-154.6291648 41.04431164 -154.74464851 33.24328154 -149 25 C-148.03513672 23.54207031 -148.03513672 23.54207031 -147.05078125 22.0546875 C-146.47714844 21.33539063 -145.90351563 20.61609375 -145.3125 19.875 C-144.44044922 18.75738281 -144.44044922 18.75738281 -143.55078125 17.6171875 C-143.03902344 17.08351563 -142.52726563 16.54984375 -142 16 C-141.34 16 -140.68 16 -140 16 C-140 15.34 -140 14.68 -140 14 C-105.74629529 -20.33604535 -40.72870794 -23.53092912 0 0 Z " fill="#040404" transform="translate(299,64)"/>
<path d="M0 0 C0.99 0.33 1.98 0.66 3 1 C2.56429687 1.42667969 2.12859375 1.85335937 1.6796875 2.29296875 C-7.82614911 12.27203965 -12.6184099 25.34219375 -12.3125 39.05078125 C-10.73165547 53.97000148 -2.61844633 66.59632665 6.03710938 78.38964844 C6.54822266 79.08864258 7.05933594 79.78763672 7.5859375 80.5078125 C8.0504834 81.13316895 8.5150293 81.75852539 8.99365234 82.40283203 C10 84 10 84 10 86 C10.99 86.33 11.98 86.66 13 87 C15.0078125 89.6171875 15.0078125 89.6171875 17.125 92.875 C17.82882813 93.94492188 18.53265625 95.01484375 19.2578125 96.1171875 C21 99 21 99 22 102 C42.295 102.495 42.295 102.495 63 103 C63.33 101.35 63.66 99.7 64 98 C66.66565185 92.79513039 70.54442188 88.3083092 74.2565918 83.82495117 C85.60386959 70.05972214 96.42185903 53.39997638 96.296875 34.87109375 C95.76052378 29.68401285 94.3248887 24.69751897 92.97265625 19.671875 C92.20797062 16.78510999 91.54029946 13.93467915 91 11 C90.34 11 89.68 11 89 11 C88.401875 9.9275 87.80375 8.855 87.1875 7.75 C85.62598931 5.01041007 83.97394497 2.46743122 82 0 C86.39667772 1.4819342 89.81716197 3.85922604 93.4375 6.6875 C94.01298584 7.13593262 94.58847168 7.58436523 95.18139648 8.04638672 C103.88118161 14.95624022 109.78073394 22.90366968 112 34 C114.31306939 57.13069392 101.07105364 76.83039273 87.20703125 93.96484375 C84.02480599 97.90881591 81.23830077 102.00452855 78.625 106.34765625 C78.08875 107.22292969 77.5525 108.09820312 77 109 C76.49601936 110.07704948 76.49601936 110.07704948 75.9818573 111.17585754 C73.97144412 114.94755157 72.45945566 117.50872767 68.2940979 118.9108429 C64.87543589 119.32728752 61.5574361 119.4568733 58.11328125 119.4765625 C56.86048874 119.50414642 55.60769623 119.53173035 54.31694031 119.56015015 C51.66548628 119.60132605 49.0222448 119.62224162 46.37133789 119.61279297 C43.66938112 119.60759049 40.98005216 119.66284254 38.28051758 119.77685547 C16.60764454 120.6283324 16.60764454 120.6283324 10.73266602 116.34814453 C7.12244879 112.39891968 4.93494084 107.99315478 2.93205261 103.07217407 C1.50803972 99.90625558 -0.46063305 97.45725873 -2.625 94.75 C-11.46719302 83.20295009 -20.46121126 71.43754375 -25.140625 57.54296875 C-25.94391167 55.00468971 -25.94391167 55.00468971 -27.08203125 52.7109375 C-29.86167299 44.50212316 -29.0786818 33.49808208 -26.0625 25.5 C-21.56590838 16.43187357 -14.66750972 10.1998952 -6.625 4.3125 C-5.71439819 3.64226807 -5.71439819 3.64226807 -4.78540039 2.95849609 C-3.0390625 1.73828125 -3.0390625 1.73828125 0 0 Z " fill="#070605" transform="translate(197,108)"/>
<path d="M0 0 C0.7752091 -0.00256327 1.55041819 -0.00512655 2.34911847 -0.0077675 C4.94879736 -0.0127121 7.54789652 0.00379843 10.14752197 0.02018738 C12.01015713 0.02103351 13.87279328 0.02055879 15.73542786 0.01885986 C20.79503438 0.01799793 25.85442822 0.03565588 30.91398525 0.05658174 C36.20041772 0.07531541 41.48685489 0.07709637 46.77331543 0.08065796 C56.78532328 0.08998815 66.79723304 0.11461515 76.80919766 0.14470643 C88.20688322 0.1782201 99.60457342 0.19472882 111.00229597 0.20979273 C134.44952207 0.24116383 157.89666106 0.29394329 181.34381104 0.36076355 C181.6122583 0.97637146 181.88070557 1.59197937 182.1572876 2.22624207 C182.51274658 3.03504822 182.86820557 3.84385437 183.23443604 4.6771698 C183.76085693 5.87901917 183.76085693 5.87901917 184.2979126 7.10514832 C185.47320548 9.6398194 186.89703437 11.97358204 188.34381104 14.36076355 C188.34381104 15.02076355 188.34381104 15.68076355 188.34381104 16.36076355 C162.71004949 16.45411094 137.07631333 16.52469566 111.44241619 16.56801224 C99.54075637 16.58865743 87.63920201 16.6168154 75.73760986 16.66252136 C65.36692878 16.70232923 54.99632405 16.72818211 44.62556869 16.73711753 C39.13181567 16.74234253 33.63828115 16.75466377 28.14459801 16.78368378 C22.97772312 16.81075729 17.81115752 16.8192249 12.64421844 16.81319427 C10.74425643 16.81429813 8.84428447 16.82229984 6.94438362 16.83758545 C4.35702332 16.85738748 1.77084206 16.85273906 -0.81654358 16.84178162 C-1.95321101 16.85925866 -1.95321101 16.85925866 -3.11284143 16.87708879 C-8.18030381 16.81878464 -8.18030381 16.81878464 -10.61906719 14.47156906 C-11.79266814 12.08299386 -12.08919669 10.45319888 -12.09368896 7.79826355 C-12.1130249 7.03384949 -12.13236084 6.26943542 -12.15228271 5.4818573 C-11.65618896 3.36076355 -11.65618896 3.36076355 -10.10369492 1.75074291 C-6.76354643 -0.146183 -3.73666242 -0.04511705 0 0 Z " fill="#020202" transform="translate(195.65618896484375,401.6392364501953)"/>
<path d="M0 0 C1.19956561 -0.00512655 1.19956561 -0.00512655 2.42336488 -0.01035666 C5.10611327 -0.01695131 7.78786364 0.00506613 10.47052002 0.0269165 C12.39226762 0.02804464 14.31401695 0.02741178 16.23576355 0.02514648 C21.4565851 0.0239971 26.67704032 0.04754292 31.8977766 0.07544231 C37.35236449 0.10041844 42.80696043 0.10279498 48.26159668 0.10754395 C58.59238228 0.11998486 68.9229989 0.15282163 79.25371003 0.1929419 C91.01413561 0.23762486 102.77456919 0.25963792 114.5350585 0.27972364 C138.72880868 0.32155322 162.9224088 0.39192702 187.11602783 0.48101807 C186.12425668 2.97496979 185.12605301 5.45801914 184.05352783 7.91851807 C183.01445735 10.75864404 182.57960857 13.49851187 182.11602783 16.48101807 C157.5426091 16.5743913 132.96921689 16.6449629 108.39565659 16.68826675 C96.98614325 16.70890644 85.57674003 16.73705395 74.16729736 16.78277588 C64.22473429 16.82260053 54.28225095 16.84844064 44.33961034 16.85737205 C39.073299 16.86259419 33.80721581 16.8748974 28.54097748 16.90393829 C23.58667692 16.93103828 18.63269902 16.93947402 13.67833138 16.93344879 C11.85780396 16.93455146 10.03726603 16.94253752 8.2168026 16.95783997 C5.73487469 16.9776835 3.25417187 16.97297844 0.7722168 16.96203613 C0.04847893 16.9736875 -0.67525893 16.98533886 -1.42092824 16.9973433 C-4.84064338 16.9564695 -6.57761345 16.72258677 -9.29998398 14.57595444 C-11.94358922 11.0795996 -12.32305053 8.8718017 -11.88397217 4.48101807 C-8.66603261 -0.08259054 -5.19834591 -0.08107236 0 0 Z " fill="#030303" transform="translate(194.88397216796875,375.51898193359375)"/>
<path d="M0 0 C12.54 0 25.08 0 38 0 C38 16.83 38 33.66 38 51 C34.25549268 50.06387317 33.25750406 49.66169339 30.546875 47.27734375 C29.61875 46.47006836 29.61875 46.47006836 28.671875 45.64648438 C28.03765625 45.08251953 27.4034375 44.51855469 26.75 43.9375 C25.77546875 43.08575195 25.77546875 43.08575195 24.78125 42.21679688 C23.18200283 40.8174556 21.59025881 39.40954759 20 38 C14.96120487 39.49367661 11.97641818 42.54821917 8.3125 46.125 C2.25600686 52 2.25600686 52 0 52 C0 34.84 0 17.68 0 0 Z " fill="#F49909" transform="translate(135,376)"/>
<path d="M0 0 C1.56971558 -0.00361794 1.56971558 -0.00361794 3.17114258 -0.00730896 C5.38008418 -0.00633099 7.58905044 0.00705057 9.79785156 0.03198242 C13.1759785 0.06628924 16.55148895 0.05263785 19.9296875 0.03320312 C22.07813612 0.04010176 24.22657799 0.04977429 26.375 0.0625 C27.88767456 0.0550602 27.88767456 0.0550602 29.4309082 0.04747009 C33.78481172 0.12047309 36.48663491 0.22860698 40.3203125 2.41821289 C42.54320347 5.05004837 42.82036628 7.12005048 42.94921875 10.53125 C41.70202616 13.96582651 39.29705376 15.90545286 36.1875 17.62890625 C32.6922622 18.3526425 29.27478866 18.33051874 25.71484375 18.29296875 C24.71417374 18.29775238 23.71350372 18.30253601 22.68251038 18.3074646 C20.57372459 18.31085736 18.46488575 18.30169878 16.35620117 18.28076172 C13.13145686 18.25395991 9.91018424 18.28054613 6.68554688 18.3125 C4.63280483 18.30919634 2.58006495 18.30279103 0.52734375 18.29296875 C-0.43422134 18.3030899 -1.39578644 18.31321106 -2.38648987 18.32363892 C-7.0868974 18.24143595 -9.1270983 18.17989737 -12.89624023 15.14990234 C-13.52860596 14.31797363 -14.16097168 13.48604492 -14.8125 12.62890625 C-15.1425 12.29890625 -15.4725 11.96890625 -15.8125 11.62890625 C-16.32943564 7.83804491 -16.16896243 6.14282823 -13.96484375 2.96508789 C-9.39745758 -0.41977257 -5.54841171 -0.07294563 0 0 Z " fill="#0D0D0D" transform="translate(225.8125,234.37109375)"/>
<path d="M0 0 C0.80610718 -0.0038269 1.61221436 -0.00765381 2.44274902 -0.01159668 C4.14397432 -0.0143139 5.84524153 -0.0069659 7.54638672 0.00976562 C10.14775896 0.0311801 12.74636972 0.00995981 15.34765625 -0.015625 C17.00261025 -0.01298169 18.65756254 -0.00785663 20.3125 0 C21.47670471 -0.01214539 21.47670471 -0.01214539 22.66442871 -0.02453613 C26.2426407 0.03747485 28.26585757 0.23429526 31.15332031 2.43066406 C33.60733784 5.86054821 32.93064559 8.41531617 32.65625 12.53125 C31.99625 12.53125 31.33625 12.53125 30.65625 12.53125 C30.32625 13.52125 29.99625 14.51125 29.65625 15.53125 C24.87985895 17.91944552 17.65433457 16.84349877 12.34423828 16.88134766 C10.63902141 16.89791578 8.93387422 16.92521747 7.22900391 16.96337891 C4.76949074 17.01814057 2.3116031 17.04001729 -0.1484375 17.0546875 C-0.9089743 17.07735687 -1.66951111 17.10002625 -2.45309448 17.12338257 C-6.28438942 17.10808916 -7.97671437 16.87300272 -10.82470703 14.22119141 C-12.81659717 10.69392597 -12.92426474 8.52228881 -12.34375 4.53125 C-9.08764965 -0.17387819 -5.30260925 -0.05531865 0 0 Z " fill="#060606" transform="translate(92.34375,375.46875)"/>
<path d="M0 0 C0.80610718 -0.0038269 1.61221436 -0.00765381 2.44274902 -0.01159668 C4.14397432 -0.0143139 5.84524153 -0.0069659 7.54638672 0.00976562 C10.14775896 0.0311801 12.74636972 0.00995981 15.34765625 -0.015625 C17.00261025 -0.01298169 18.65756254 -0.00785663 20.3125 0 C21.47670471 -0.01214539 21.47670471 -0.01214539 22.66442871 -0.02453613 C26.2426407 0.03747485 28.26585757 0.23429526 31.15332031 2.43066406 C33.60733784 5.86054821 32.93064559 8.41531617 32.65625 12.53125 C31.99625 12.53125 31.33625 12.53125 30.65625 12.53125 C30.32625 13.52125 29.99625 14.51125 29.65625 15.53125 C24.98391379 17.8674181 18.01811549 16.8431696 12.82641602 16.88134766 C11.17653284 16.89789678 9.52672105 16.92517356 7.87719727 16.96337891 C5.49457742 17.01826149 3.11363628 17.0400371 0.73046875 17.0546875 C-0.00303299 17.07735687 -0.73653473 17.10002625 -1.49226379 17.12338257 C-5.42355353 17.10723553 -7.17481174 16.66267266 -10.31323242 14.22119141 C-12.34375 11.53125 -12.34375 11.53125 -12.90625 7.96875 C-11.66261514 0.36875918 -6.82056258 -0.07115447 0 0 Z " fill="#070707" transform="translate(92.34375,401.46875)"/>
<path d="M0 0 C0.33 0 0.66 0 1 0 C1 16.83 1 33.66 1 51 C75.25 51 149.5 51 226 51 C226 51.33 226 51.66 226 52 C139.54 52 53.08 52 -36 52 C-32.04063989 47.38074654 -29.22789937 44.10797654 -24.625 40.5625 C-23.75101563 39.88316406 -22.87703125 39.20382812 -21.9765625 38.50390625 C-21.32429687 38.00761719 -20.67203125 37.51132812 -20 37 C-15.16675464 38.98317439 -11.56059375 42.6956008 -7.68945312 46.09960938 C-5.13844566 48.30930558 -3.23579867 49.92140044 0 51 C0 34.17 0 17.34 0 0 Z " fill="#EEEAE1" transform="translate(173,376)"/>
<path d="M0 0 C1.08861328 -0.00257813 2.17722656 -0.00515625 3.29882812 -0.0078125 C12.31481867 0.10315354 12.31481867 0.10315354 15.9375 3.5 C16.72265625 5.5859375 16.72265625 5.5859375 17 7.875 C17.11472656 8.62523437 17.22945313 9.37546875 17.34765625 10.1484375 C16.9375 12.5 16.9375 12.5 15.1875 15.25390625 C10.26488426 18.65595439 5.71658967 18.19092473 -0.125 18.0625 C-1.21361328 18.07345703 -2.30222656 18.08441406 -3.42382812 18.09570312 C-11.44011904 18.02170659 -11.44011904 18.02170659 -14.34155273 15.58959961 C-16.4006764 13.08938121 -17.00714005 11.91519961 -17.4375 8.6875 C-17.0625 5.5 -17.0625 5.5 -15.29296875 2.83203125 C-10.40186585 -0.6987891 -5.87656056 -0.15363557 0 0 Z " fill="#0A0A0A" transform="translate(239.0625,261.5)"/>
<path d="M0 0 C3.9201305 1.67461885 7.01217061 4.28889884 10.25 7 C10.80429688 7.45117188 11.35859375 7.90234375 11.9296875 8.3671875 C13.32731582 9.53073029 14.66885563 10.76094738 16 12 C16 12.66 16 13.32 16 14 C6.76 14 -2.48 14 -12 14 C-8 9.33333333 -4 4.66666667 0 0 Z " fill="#FCFCFC" transform="translate(153,413)"/>
<path d="M0 0 C0.33 0.66 0.66 1.32 1 2 C1.90492188 1.96519531 1.90492188 1.96519531 2.828125 1.9296875 C4.02695313 1.90261719 4.02695313 1.90261719 5.25 1.875 C6.03890625 1.85179687 6.8278125 1.82859375 7.640625 1.8046875 C10.20731941 2.0171622 11.7916067 2.71345895 14 4 C13.01 4 12.02 4 11 4 C11 4.66 11 5.32 11 6 C6.545 7.485 6.545 7.485 2 9 C2 23.19 2 37.38 2 52 C1.34 52 0.68 52 0 52 C0 34.84 0 17.68 0 0 Z " fill="#F4AA35" transform="translate(135,376)"/>
<path d="M0 0 C1.25513654 3.86761538 1.14416307 7.7385232 1.1328125 11.7578125 C1.13376923 12.50207489 1.13472595 13.24633728 1.13571167 14.01315308 C1.13639052 15.58152349 1.13455683 17.14989675 1.13037109 18.71826172 C1.12500349 21.1234361 1.13033378 23.52842504 1.13671875 25.93359375 C1.13605821 27.45833375 1.13477756 28.98307363 1.1328125 30.5078125 C1.13483673 31.22865021 1.13686096 31.94948792 1.13894653 32.69216919 C1.1149722 37.7700556 1.1149722 37.7700556 0 40 C-0.66 40 -1.32 40 -2 40 C-2.04955872 35.10702988 -2.0857946 30.21420695 -2.10986328 25.32104492 C-2.11990057 23.65760756 -2.13353331 21.99418775 -2.15087891 20.33081055 C-2.17522749 17.93533995 -2.18650588 15.54010332 -2.1953125 13.14453125 C-2.20563507 12.4047554 -2.21595764 11.66497955 -2.22659302 10.90278625 C-2.22747437 6.81668239 -1.82364095 3.6756777 0 0 Z " fill="#4A4948" transform="translate(147,94)"/>
<path d="M0 0 C0.66 0.33 1.32 0.66 2 1 C-1.3 4.3 -4.6 7.6 -8 11 C-5.02033203 10.96519531 -5.02033203 10.96519531 -1.98046875 10.9296875 C-0.05428569 10.91578004 1.87189862 10.90194374 3.7980957 10.89013672 C5.79319618 10.87514505 7.78820946 10.84973269 9.78320312 10.82421875 C11.66362305 10.81455078 11.66362305 10.81455078 13.58203125 10.8046875 C14.73936768 10.79421387 15.8967041 10.78374023 17.08911133 10.77294922 C20 11 20 11 23 13 C11.12 13 -0.76 13 -13 13 C-6.25 5.125 -6.25 5.125 -3.125 2.5625 C-2.52945313 2.06878906 -1.93390625 1.57507813 -1.3203125 1.06640625 C-0.88460937 0.71449219 -0.44890625 0.36257813 0 0 Z " fill="#E6E6E4" transform="translate(150,415)"/>
<path d="M0 0 C0.66 0.33 1.32 0.66 2 1 C1.34 1.66 0.68 2.32 0 3 C0.33 3.66 0.66 4.32 1 5 C-10.52164009 13.44646925 -10.52164009 13.44646925 -16 17 C-14.65396955 13.96132181 -13.19575827 11.99614388 -10.7421875 9.765625 C-10.11699219 9.19199219 -9.49179687 8.61835938 -8.84765625 8.02734375 C-8.19667969 7.44082031 -7.54570312 6.85429687 -6.875 6.25 C-6.21628906 5.64800781 -5.55757813 5.04601562 -4.87890625 4.42578125 C-3.25731491 2.94519785 -1.63097546 1.47022875 0 0 Z " fill="#D2D2D2" transform="translate(296,270)"/>
<path d="M0 0 C0.66 0.33 1.32 0.66 2 1 C-3.94 6.94 -9.88 12.88 -16 19 C-16.66 18.67 -17.32 18.34 -18 18 C-16.12973998 15.93302978 -14.25404816 13.87145703 -12.375 11.8125 C-11.59189453 10.9452832 -11.59189453 10.9452832 -10.79296875 10.06054688 C-7.41255947 6.36713674 -3.91565929 3.12194457 0 0 Z " fill="#D2D2D1" transform="translate(169,108)"/>
<path d="M0 0 C0 3 0 3 -1.96875 5.26171875 C-2.8040625 6.06222656 -3.639375 6.86273438 -4.5 7.6875 C-5.3353125 8.49574219 -6.170625 9.30398438 -7.03125 10.13671875 C-8.00578125 11.05904297 -8.00578125 11.05904297 -9 12 C-8.01 12.66 -7.02 13.32 -6 14 C-8.97 14.66 -11.94 15.32 -15 16 C-15 15.34 -15 14.68 -15 14 C-14.34 14 -13.68 14 -13 14 C-12.67902344 13.17242187 -12.67902344 13.17242187 -12.3515625 12.328125 C-10.546489 9.21880764 -8.05199936 7.08727863 -5.375 4.75 C-4.859375 4.29109375 -4.34375 3.8321875 -3.8125 3.359375 C-2.5465398 2.23407704 -1.27392058 1.11627823 0 0 Z " fill="#C9C9C8" transform="translate(277,310)"/>
<path d="M0 0 C0.66 0.33 1.32 0.66 2 1 C-3.28 6.28 -8.56 11.56 -14 17 C-14 12.08113186 -10.31173311 9.3948461 -7 6 C-4.72300284 3.91201998 -2.39497582 1.9550823 0 0 Z " fill="#D2D2D2" transform="translate(158,65)"/>
<path d="M0 0 C0.66 0.33 1.32 0.66 2 1 C-2.95 5.95 -7.9 10.9 -13 16 C-13 11.08924079 -9.30469813 8.39044878 -6 5 C-4.05397986 3.23549584 -2.07285289 1.6178364 0 0 Z " fill="#323232" transform="translate(188,114)"/>
<path d="M0 0 C0.66 0.33 1.32 0.66 2 1 C1.01 1.8971875 1.01 1.8971875 0 2.8125 C-2.3373846 4.87501834 -2.3373846 4.87501834 -2 8 C-4.3125 9.75 -4.3125 9.75 -7 11 C-7.99 10.67 -8.98 10.34 -10 10 C-3.84965831 2.51708428 -3.84965831 2.51708428 0 0 Z " fill="#E0E0DF" transform="translate(305,263)"/>
<path d="M0 0 C0.66 0.33 1.32 0.66 2 1 C-2.95 5.95 -7.9 10.9 -13 16 C-13 12.06830895 -11.60580385 10.83572772 -9 8 C-8.34 8 -7.68 8 -7 8 C-7 7.34 -7 6.68 -7 6 C-5.46875 4.4921875 -5.46875 4.4921875 -3.5 2.875 C-2.8503125 2.33617188 -2.200625 1.79734375 -1.53125 1.2421875 C-0.77328125 0.62730469 -0.77328125 0.62730469 0 0 Z " fill="#303030" transform="translate(166,72)"/>
<path d="M0 0 C0.66 0.33 1.32 0.66 2 1 C-1.96 4.96 -5.92 8.92 -10 13 C-10 9.28115772 -9.1259934 8.63852271 -6.6875 5.9375 C-5.76517578 4.89916016 -5.76517578 4.89916016 -4.82421875 3.83984375 C-3 2 -3 2 0 0 Z " fill="#D4D4D3" transform="translate(77,368)"/>
<path d="M0 0 C0.66 0.33 1.32 0.66 2 1 C0.21427748 2.83947337 -1.57802449 4.67157741 -3.375 6.5 C-3.88289062 7.02464844 -4.39078125 7.54929687 -4.9140625 8.08984375 C-6.23832604 9.43153181 -7.61605865 10.71995815 -9 12 C-9.66 12 -10.32 12 -11 12 C-9.49650623 8.33213607 -7.36271208 6.31089607 -4.375 3.75 C-3.14910156 2.69039063 -3.14910156 2.69039063 -1.8984375 1.609375 C-1.27195313 1.07828125 -0.64546875 0.5471875 0 0 Z " fill="#F2E8D8" transform="translate(150,415)"/>
<path d="M0 0 C0.66 0 1.32 0 2 0 C3.7265625 1.75 3.7265625 1.75 5.625 4 C6.25664062 4.7425 6.88828125 5.485 7.5390625 6.25 C8.02117187 6.8275 8.50328125 7.405 9 8 C5.39426104 8 4.58663434 7.18292538 1.8125 5 C1.09707031 4.443125 0.38164062 3.88625 -0.35546875 3.3125 C-0.89816406 2.879375 -1.44085938 2.44625 -2 2 C-1.34 1.34 -0.68 0.68 0 0 Z " fill="#B3B2B1" transform="translate(187,275)"/>
<path d="M0 0 C0.33 0.99 0.66 1.98 1 3 C-1.31 4.65 -3.62 6.3 -6 8 C-4.55746343 4.63408134 -2.66735273 2.48952921 0 0 Z " fill="#80807F" transform="translate(286,279)"/>
<path d="M0 0 C0.66 0.33 1.32 0.66 2 1 C1.360625 1.556875 0.72125 2.11375 0.0625 2.6875 C-2.19680987 5.22066561 -2.63149047 6.68341424 -3 10 C-3.33 10 -3.66 10 -4 10 C-4.25 7.25 -4.25 7.25 -4 4 C-2 1.625 -2 1.625 0 0 Z " fill="#383837" transform="translate(226,263)"/>
</svg>
